<svg id="logo" xmlns="http://www.w3.org/2000/svg" viewBox="0 0 156 50" xml:space="preserve">
	<style type="text/css">
		.st0 {
			fill: #FFE132;
		}

		.st1 {
			fill: #000000;
		}

		.st2 {
			font-size: 12px;
		}
	</style>
	<rect class="st0" width="66" height="37" />
	<g>
		<g>
			<path class="st1" d="M11.4,8.1h8.9v2.8h-8.9V8.1z M13.3,5.8c0-1.5,0.4-2.6,1.1-3.3c0.7-0.7,1.8-1.1,3.4-1.1h2.6v3.1h-2.5
			c-0.3,0-0.6,0.1-0.8,0.4c-0.2,0.2-0.3,0.5-0.3,0.9v18.8h-3.5V5.8z" />
			<path class="st1" d="M27.4,18.1c0,1.2,0.3,2,1,2.7c0.6,0.6,1.5,0.9,2.7,0.9c1.1,0,2-0.3,2.7-0.8c0.6-0.6,0.9-1.4,0.9-2.4l0.2,3.4
			c-0.4,0.8-1,1.5-1.8,2.1c-0.8,0.6-1.8,0.8-3,0.8c-2,0-3.5-0.6-4.6-1.8c-1.1-1.2-1.6-2.8-1.6-5v-10h3.5V18.1z M34.6,8.1h3.5v16.5
			h-3.5V8.1z" />
			<path class="st1" d="M43.4,8.1h3.5v16.5h-3.5V8.1z M52,11.2c-0.5-0.2-1-0.3-1.6-0.3c-1.1,0-2,0.3-2.6,0.9
			c-0.6,0.6-0.9,1.4-0.9,2.4L46.5,11c0.5-1,1.3-1.8,2.1-2.3s1.8-0.8,2.9-0.8c0.8,0,1.5,0.1,2.2,0.3c0.7,0.2,1.2,0.5,1.7,1L53.2,12
			C52.9,11.6,52.5,11.4,52,11.2z" />
			<path class="st1" d="M12.7,26.1h3.5v23.2h-3.5V26.1z M17.8,42.1C17,41.6,16.4,40.9,16,40l0.2-3.5c0,0.7,0.1,1.3,0.4,1.8
			c0.3,0.5,0.7,0.9,1.2,1.1c0.5,0.3,1.2,0.4,1.9,0.4c1.2,0,2.1-0.3,2.7-1c0.6-0.7,1-1.6,1-2.8v-3.6c0-1.2-0.3-2.1-1-2.8
			c-0.6-0.7-1.5-1-2.7-1c-0.7,0-1.4,0.1-1.9,0.4c-0.5,0.3-0.9,0.6-1.2,1.1c-0.3,0.5-0.4,1.1-0.4,1.8l-0.4-3.2c0.5-1,1.2-1.7,2.1-2.2
			c0.9-0.5,1.8-0.8,2.9-0.8c1.3,0,2.3,0.3,3.2,0.8c0.9,0.5,1.6,1.3,2.1,2.3s0.7,2.2,0.7,3.6v3.6c0,1.4-0.2,2.6-0.7,3.6
			S25,41.5,24.1,42c-0.9,0.5-2,0.8-3.3,0.8C19.6,42.8,18.7,42.6,17.8,42.1z" />
			<path class="st1" d="M35.3,42c-1.1-0.6-1.9-1.4-2.5-2.5c-0.6-1.1-0.9-2.4-0.9-3.9v-2.7c0-1.5,0.3-2.8,0.9-3.8
			c0.6-1.1,1.4-1.9,2.5-2.4c1.1-0.6,2.4-0.8,4-0.8c1.5,0,2.9,0.3,4,0.8c1.1,0.6,1.9,1.4,2.5,2.4c0.6,1.1,0.9,2.3,0.9,3.8v2.7
			c0,1.5-0.3,2.8-0.9,3.9c-0.6,1.1-1.4,1.9-2.5,2.4c-1.1,0.6-2.4,0.8-4,0.8C37.7,42.8,36.4,42.5,35.3,42z M42.1,38.7
			c0.7-0.7,1-1.7,1-3v-2.7c0-1.3-0.3-2.3-1-3c-0.7-0.7-1.6-1-2.8-1c-1.2,0-2.2,0.3-2.8,1c-0.7,0.7-1,1.7-1,3v2.7c0,1.3,0.3,2.3,1,3
			c0.7,0.7,1.6,1.1,2.8,1.1C40.5,39.7,41.4,39.4,42.1,38.7z" />
			<path class="st1" d="M52.1,19.5h3.5v3.2h-3.5V19.5z M52.1,26.1h3.5v16.5h-3.5V26.1z" />
			<path class="st1" d="M61.5,26.1H65v16.5h-3.5V26.1z M72.3,32.6c0-1.2-0.3-2.1-1-2.7s-1.6-1-2.7-1c-1.1,0-2,0.3-2.7,0.8
			S65,31.1,65,32.1L64.7,29c0.5-1,1.3-1.8,2.2-2.3c0.9-0.5,1.9-0.8,2.9-0.8c1.9,0,3.4,0.6,4.5,1.8c1.1,1.2,1.6,2.8,1.6,5v10h-3.5
			V32.6z" />
			<path class="st1" d="M80.4,26.1h8V29h-8V26.1z M83.2,41.6c-0.7-0.7-1-1.8-1-3.3v-17h3.5v17c0,0.4,0.1,0.7,0.3,0.9
			c0.2,0.2,0.4,0.3,0.8,0.3h1.7v3.1h-2C84.9,42.7,83.9,42.3,83.2,41.6z" />
		</g>
	</g>
	<text transform="matrix(0.95 0 0 0.88 101.1663 29.3335)">
		<tspan x="0" y="0" class="st1 st2">мебельная</tspan>
		<tspan x="0" y="13.6" class="st1 st2">фабрика</tspan>
	</text>
</svg>